<svg width="250" height="250" viewBox="0 0 250 250" fill="none" xmlns="http://www.w3.org/2000/svg">
<g clip-path="url(#clip0_1_14)">
<rect width="250" height="250" fill="url(#paint0_linear_1_14)"/>
<path d="M227 22.5249C211.377 22.5249 195.841 23.4242 180.21 22.5249C172.399 22.0755 164.578 21.08 156.775 20.3881C151.464 19.9171 146.155 20.5436 140.858 19.8225C131.053 18.4878 121.231 18 111.363 18" stroke="#1B1A1A" stroke-opacity="0.57" stroke-width="4" stroke-linecap="round"/>
<path d="M218.105 143C202.703 143 187.612 140.599 172.277 139.041C162.339 138.031 152.416 137.547 142.47 136.778C136.328 136.303 130.115 136.537 124.004 135.647C116.684 134.581 109.38 132.819 102 132.819" stroke="#1B1A1A" stroke-opacity="0.57" stroke-width="4" stroke-linecap="round"/>
<path d="M226.532 25.353C224.709 27.3349 221.615 28.0321 219.405 29.0923C210.232 33.4926 202.402 40.3544 194.827 47.9146C183.085 59.6329 174.52 73.8925 165.436 88.45C158.405 99.718 150.309 110.031 143.407 121.381C141.006 125.328 138.197 131.757 134.772 134.516" stroke="#1B1A1A" stroke-opacity="0.57" stroke-width="4" stroke-linecap="round"/>
<path d="M218.105 141.303C215.902 141.303 213.537 139.182 211.811 137.784C203.313 130.902 193.49 125.778 184.007 121.255C173.333 116.165 161.065 115.23 149.857 112.457C145.476 111.373 140.702 110.463 136.28 109.755C131.768 109.032 127.128 107.195 122.625 106.832C119.993 106.62 117.855 105.67 115.109 105.67" stroke="#1B1A1A" stroke-opacity="0.57" stroke-width="4" stroke-linecap="round"/>
<path d="M21.5249 13C21.5249 28.6228 22.4242 44.1591 21.5249 59.7905C21.0755 67.601 20.08 75.4217 19.3881 83.2247C18.9171 88.5365 19.5436 93.8453 18.8225 99.1424C17.4878 108.947 17 118.769 17 128.637" stroke="#1B1A1A" stroke-opacity="0.57" stroke-width="4" stroke-linecap="round"/>
<path d="M142 21.8951C142 37.2967 139.599 52.3884 138.041 67.7233C137.031 77.6605 136.547 87.5844 135.778 97.5298C135.303 103.672 135.537 109.885 134.647 115.996C133.581 123.316 131.819 130.62 131.819 138" stroke="#1B1A1A" stroke-opacity="0.57" stroke-width="4" stroke-linecap="round"/>
<path d="M24.353 13.4681C26.3349 15.2909 27.0321 18.3847 28.0923 20.5946C32.4926 29.7677 39.3544 37.5982 46.9146 45.1733C58.6329 56.9147 72.8925 65.4802 87.45 74.5637C98.718 81.5946 109.031 89.6911 120.381 96.5934C124.328 98.9937 130.757 101.803 133.516 105.228" stroke="#1B1A1A" stroke-opacity="0.57" stroke-width="4" stroke-linecap="round"/>
<path d="M140.303 21.8951C140.303 24.0977 138.182 26.4626 136.784 28.1894C129.902 36.6866 124.778 46.5103 120.255 55.9932C115.165 66.6666 114.23 78.935 111.457 90.1432C110.373 94.5238 109.463 99.2976 108.755 103.72C108.032 108.232 106.195 112.872 105.832 117.375C105.62 120.007 104.67 122.145 104.67 124.891" stroke="#1B1A1A" stroke-opacity="0.57" stroke-width="4" stroke-linecap="round"/>
<path d="M109.941 107C109.941 110.25 110.128 113.481 109.941 116.732C109.848 118.357 109.641 119.984 109.497 121.607C109.399 122.712 109.529 123.816 109.379 124.918C109.101 126.957 109 129 109 131.052" stroke="#1B1A1A" stroke-opacity="0.57" stroke-width="4" stroke-linecap="round"/>
<path d="M135 108.85C135 112.054 134.501 115.193 134.176 118.382C133.966 120.449 133.866 122.514 133.706 124.582C133.607 125.86 133.656 127.152 133.471 128.423C133.249 129.946 132.882 131.465 132.882 133" stroke="#1B1A1A" stroke-opacity="0.57" stroke-width="4" stroke-linecap="round"/>
<path d="M110.529 107.097C110.942 107.476 111.087 108.12 111.307 108.58C112.222 110.488 113.65 112.116 115.222 113.692C117.66 116.134 120.626 117.916 123.654 119.805C125.997 121.268 128.142 122.952 130.503 124.387C131.324 124.887 132.661 125.471 133.235 126.183" stroke="#1B1A1A" stroke-opacity="0.57" stroke-width="4" stroke-linecap="round"/>
<path d="M134.647 108.85C134.647 109.308 134.206 109.8 133.915 110.159C132.484 111.927 131.418 113.97 130.477 115.943C129.418 118.163 129.224 120.715 128.647 123.046C128.422 123.957 128.232 124.95 128.085 125.87C127.935 126.808 127.553 127.773 127.477 128.71C127.433 129.257 127.235 129.702 127.235 130.273" stroke="#1B1A1A" stroke-opacity="0.57" stroke-width="4" stroke-linecap="round"/>
<path d="M229.475 248C229.475 232.377 228.576 216.841 229.475 201.21C229.924 193.399 230.92 185.578 231.612 177.775C232.083 172.464 231.456 167.155 232.177 161.858C233.512 152.053 234 142.231 234 132.363" stroke="#1B1A1A" stroke-opacity="0.57" stroke-width="4" stroke-linecap="round"/>
<path d="M109 239.105C109 223.703 111.401 208.612 112.959 193.277C113.969 183.339 114.453 173.416 115.222 163.47C115.697 157.328 115.463 151.115 116.353 145.004C117.419 137.684 119.181 130.38 119.181 123" stroke="#1B1A1A" stroke-opacity="0.57" stroke-width="4" stroke-linecap="round"/>
<path d="M226.647 247.532C224.665 245.709 223.968 242.615 222.908 240.405C218.507 231.232 211.646 223.402 204.085 215.827C192.367 204.085 178.108 195.52 163.55 186.436C152.282 179.405 141.969 171.309 130.619 164.407C126.672 162.006 120.243 159.197 117.484 155.772" stroke="#1B1A1A" stroke-opacity="0.57" stroke-width="4" stroke-linecap="round"/>
<path d="M110.697 239.105C110.697 236.902 112.818 234.537 114.216 232.811C121.098 224.313 126.222 214.49 130.745 205.007C135.835 194.333 136.77 182.065 139.543 170.857C140.627 166.476 141.537 161.702 142.245 157.28C142.968 152.768 144.805 148.128 145.168 143.625C145.38 140.993 146.33 138.855 146.33 136.109" stroke="#1B1A1A" stroke-opacity="0.57" stroke-width="4" stroke-linecap="round"/>
<path d="M17 245.475C32.6228 245.475 48.1591 244.576 63.7905 245.475C71.601 245.924 79.4217 246.92 87.2247 247.612C92.5365 248.083 97.8453 247.456 103.142 248.177C112.947 249.512 122.769 250 132.637 250" stroke="#1B1A1A" stroke-opacity="0.57" stroke-width="4" stroke-linecap="round"/>
<path d="M25.8951 125C41.2967 125 56.3884 127.401 71.7233 128.959C81.6605 129.969 91.5844 130.453 101.53 131.222C107.672 131.697 113.885 131.463 119.996 132.353C127.316 133.419 134.62 135.181 142 135.181" stroke="#1B1A1A" stroke-opacity="0.57" stroke-width="4" stroke-linecap="round"/>
<path d="M17.4681 242.647C19.2909 240.665 22.3846 239.968 24.5946 238.908C33.7677 234.507 41.5982 227.646 49.1733 220.085C60.9147 208.367 69.4802 194.108 78.5636 179.55C85.5945 168.282 93.691 157.969 100.593 146.619C102.994 142.672 105.803 136.243 109.228 133.484" stroke="#1B1A1A" stroke-opacity="0.57" stroke-width="4" stroke-linecap="round"/>
<path d="M25.8951 126.697C28.0977 126.697 30.4626 128.818 32.1894 130.216C40.6866 137.098 50.5103 142.222 59.9932 146.745C70.6666 151.835 82.935 152.77 94.1432 155.543C98.5238 156.627 103.298 157.537 107.72 158.245C112.232 158.968 116.872 160.805 121.375 161.168C124.007 161.38 126.145 162.33 128.891 162.33" stroke="#1B1A1A" stroke-opacity="0.57" stroke-width="4" stroke-linecap="round"/>
<path d="M223 17.5249C207.377 17.5249 191.841 18.4242 176.21 17.5249C168.399 17.0755 160.578 16.08 152.775 15.3881C147.464 14.9171 142.155 15.5436 136.858 14.8225C127.053 13.4878 117.231 13 107.363 13" stroke="black" stroke-width="3" stroke-linecap="round"/>
<path d="M214.105 138C198.703 138 183.612 135.599 168.277 134.041C158.339 133.031 148.416 132.547 138.47 131.778C132.328 131.303 126.115 131.537 120.004 130.647C112.684 129.581 105.38 127.819 98 127.819" stroke="black" stroke-width="3" stroke-linecap="round"/>
<path d="M222.532 20.353C220.709 22.3349 217.615 23.0321 215.405 24.0923C206.232 28.4926 198.402 35.3544 190.827 42.9146C179.085 54.6329 170.52 68.8925 161.436 83.45C154.405 94.718 146.309 105.031 139.407 116.381C137.006 120.328 134.197 126.757 130.772 129.516" stroke="black" stroke-width="3" stroke-linecap="round"/>
<path d="M214.105 136.303C211.902 136.303 209.537 134.182 207.811 132.784C199.313 125.902 189.49 120.778 180.007 116.255C169.333 111.165 157.065 110.23 145.857 107.457C141.476 106.373 136.702 105.463 132.28 104.755C127.768 104.032 123.128 102.195 118.625 101.832C115.993 101.62 113.855 100.67 111.109 100.67" stroke="black" stroke-width="3" stroke-linecap="round"/>
<path d="M17.5249 8C17.5249 23.6228 18.4242 39.1591 17.5249 54.7905C17.0755 62.601 16.08 70.4217 15.3881 78.2247C14.9171 83.5365 15.5436 88.8453 14.8225 94.1424C13.4878 103.947 13 113.769 13 123.637" stroke="black" stroke-width="3" stroke-linecap="round"/>
<path d="M138 16.8951C138 32.2967 135.599 47.3884 134.041 62.7233C133.031 72.6605 132.547 82.5844 131.778 92.5298C131.303 98.672 131.537 104.885 130.647 110.996C129.581 118.316 127.819 125.62 127.819 133" stroke="black" stroke-width="3" stroke-linecap="round"/>
<path d="M20.353 8.46814C22.3349 10.2909 23.0321 13.3847 24.0923 15.5946C28.4926 24.7677 35.3544 32.5982 42.9146 40.1733C54.6329 51.9147 68.8925 60.4802 83.45 69.5637C94.718 76.5946 105.031 84.6911 116.381 91.5934C120.328 93.9937 126.757 96.8032 129.516 100.228" stroke="black" stroke-width="3" stroke-linecap="round"/>
<path d="M136.303 16.8951C136.303 19.0977 134.182 21.4626 132.784 23.1894C125.902 31.6866 120.778 41.5103 116.255 50.9932C111.165 61.6666 110.23 73.935 107.457 85.1432C106.373 89.5238 105.463 94.2976 104.755 98.72C104.032 103.232 102.195 107.872 101.832 112.375C101.62 115.007 100.67 117.145 100.67 119.891" stroke="black" stroke-width="3" stroke-linecap="round"/>
<path d="M105.941 102C105.941 105.25 106.128 108.481 105.941 111.732C105.848 113.357 105.641 114.984 105.497 116.607C105.399 117.712 105.529 118.816 105.379 119.918C105.101 121.957 105 124 105 126.052" stroke="black" stroke-width="3" stroke-linecap="round"/>
<path d="M131 103.85C131 107.054 130.501 110.193 130.176 113.382C129.966 115.449 129.866 117.514 129.706 119.582C129.607 120.86 129.656 122.152 129.471 123.423C129.249 124.946 128.882 126.465 128.882 128" stroke="black" stroke-width="3" stroke-linecap="round"/>
<path d="M106.529 102.097C106.942 102.476 107.087 103.12 107.307 103.58C108.222 105.488 109.65 107.116 111.222 108.692C113.66 111.134 116.626 112.916 119.654 114.805C121.997 116.268 124.142 117.952 126.503 119.387C127.324 119.887 128.661 120.471 129.235 121.183" stroke="black" stroke-width="3" stroke-linecap="round"/>
<path d="M130.647 103.85C130.647 104.308 130.206 104.8 129.915 105.159C128.484 106.927 127.418 108.97 126.477 110.943C125.418 113.163 125.224 115.715 124.647 118.046C124.422 118.957 124.232 119.95 124.085 120.87C123.935 121.808 123.553 122.773 123.477 123.71C123.433 124.257 123.235 124.702 123.235 125.273" stroke="black" stroke-width="3" stroke-linecap="round"/>
<path d="M225.475 243C225.475 227.377 224.576 211.841 225.475 196.21C225.924 188.399 226.92 180.578 227.612 172.775C228.083 167.464 227.456 162.155 228.177 156.858C229.512 147.053 230 137.231 230 127.363" stroke="black" stroke-width="3" stroke-linecap="round"/>
<path d="M105 234.105C105 218.703 107.401 203.612 108.959 188.277C109.969 178.339 110.453 168.416 111.222 158.47C111.697 152.328 111.463 146.115 112.353 140.004C113.419 132.684 115.181 125.38 115.181 118" stroke="black" stroke-width="3" stroke-linecap="round"/>
<path d="M222.647 242.532C220.665 240.709 219.968 237.615 218.908 235.405C214.507 226.232 207.646 218.402 200.085 210.827C188.367 199.085 174.108 190.52 159.55 181.436C148.282 174.405 137.969 166.309 126.619 159.407C122.672 157.006 116.243 154.197 113.484 150.772" stroke="black" stroke-width="3" stroke-linecap="round"/>
<path d="M106.697 234.105C106.697 231.902 108.818 229.537 110.216 227.811C117.098 219.313 122.222 209.49 126.745 200.007C131.835 189.333 132.77 177.065 135.543 165.857C136.627 161.476 137.537 156.702 138.245 152.28C138.968 147.768 140.805 143.128 141.168 138.625C141.38 135.993 142.33 133.855 142.33 131.109" stroke="black" stroke-width="3" stroke-linecap="round"/>
<path d="M13 240.475C28.6228 240.475 44.1591 239.576 59.7905 240.475C67.601 240.924 75.4217 241.92 83.2247 242.612C88.5365 243.083 93.8453 242.456 99.1424 243.177C108.947 244.512 118.769 245 128.637 245" stroke="black" stroke-width="3" stroke-linecap="round"/>
<path d="M21.8951 120C37.2967 120 52.3884 122.401 67.7233 123.959C77.6605 124.969 87.5844 125.453 97.5298 126.222C103.672 126.697 109.885 126.463 115.996 127.353C123.316 128.419 130.62 130.181 138 130.181" stroke="black" stroke-width="3" stroke-linecap="round"/>
<path d="M13.4681 237.647C15.2909 235.665 18.3846 234.968 20.5946 233.908C29.7677 229.507 37.5982 222.646 45.1733 215.085C56.9147 203.367 65.4802 189.108 74.5636 174.55C81.5945 163.282 89.691 152.969 96.5934 141.619C98.9936 137.672 101.803 131.243 105.228 128.484" stroke="black" stroke-width="3" stroke-linecap="round"/>
<path d="M21.8951 121.697C24.0977 121.697 26.4626 123.818 28.1894 125.216C36.6866 132.098 46.5103 137.222 55.9932 141.745C66.6666 146.835 78.935 147.77 90.1432 150.543C94.5238 151.627 99.2976 152.537 103.72 153.245C108.232 153.968 112.872 155.805 117.375 156.168C120.007 156.38 122.145 157.33 124.891 157.33" stroke="black" stroke-width="3" stroke-linecap="round"/>
</g>
<defs>
<linearGradient id="paint0_linear_1_14" x1="208.5" y1="-2.90638e-06" x2="112" y2="250" gradientUnits="userSpaceOnUse">
<stop offset="0.101203" stop-color="#191A83"/>
<stop offset="0.45" stop-color="#B3A93E" stop-opacity="0.47"/>
<stop offset="1" stop-color="#6224AD"/>
</linearGradient>
<clipPath id="clip0_1_14">
<rect width="250" height="250" fill="white"/>
</clipPath>
</defs>
</svg>
