<svg width="250" height="250" viewBox="0 0 250 250" fill="none" xmlns="http://www.w3.org/2000/svg">
<rect width="250" height="250" fill="#1E1E1E"/>
<rect width="250" height="250" fill="white"/>
<path d="M50.3762 44.7017C50.3762 67.3844 51.4569 89.9416 50.3762 112.637C49.8362 123.977 48.6399 135.332 47.8084 146.661C47.2423 154.373 47.9952 162.081 47.1286 169.772C45.5246 184.007 44.9384 198.268 44.9384 212.595" stroke="black" stroke-width="3" stroke-linecap="round"/>
<path d="M195.158 57.6165C195.158 79.978 192.273 101.89 190.4 124.154C189.187 138.582 188.605 152.991 187.681 167.43C187.111 176.348 187.392 185.369 186.322 194.242C185.041 204.869 182.923 215.474 182.923 226.189" stroke="black" stroke-width="3" stroke-linecap="round"/>
<path d="M53.7749 45.3814C56.1567 48.0279 56.9946 52.5197 58.2686 55.7284C63.5568 69.0468 71.803 80.4159 80.8885 91.4141C94.9711 108.462 112.108 120.898 129.602 134.086C143.144 144.294 155.537 156.049 169.178 166.071C173.921 169.556 181.647 173.635 184.962 178.608" stroke="black" stroke-width="3" stroke-linecap="round"/>
<path d="M193.119 57.6165C193.119 60.8145 190.57 64.248 188.89 66.7551C180.62 79.0922 174.461 93.3552 169.027 107.123C162.909 122.62 161.786 140.433 158.453 156.706C157.15 163.066 156.056 169.997 155.205 176.418C154.337 182.969 152.129 189.705 151.693 196.243C151.439 200.065 150.296 203.169 150.296 207.157" stroke="black" stroke-width="3" stroke-linecap="round"/>
</svg>
